<?xml version="1.0" standalone="no"?>
<!DOCTYPE svg PUBLIC "-//W3C//DTD SVG 20010904//EN"
 "http://www.w3.org/TR/2001/REC-SVG-20010904/DTD/svg10.dtd">
<svg version="1.0" xmlns="http://www.w3.org/2000/svg"
 width="1784.000000pt" height="1784.000000pt" viewBox="0 0 1784.000000 1784.000000"
 preserveAspectRatio="xMidYMid meet">
<metadata>
Created by potrace 1.14, written by Peter Selinger 2001-2017
</metadata>
<g transform="translate(0.000000,1784.000000) scale(0.100000,-0.100000)"
fill="#000000" stroke="none">
<path d="M8539 17836 c-2 -2 -70 -6 -151 -10 -80 -4 -157 -9 -170 -11 -13 -2
-63 -6 -113 -10 -49 -4 -99 -9 -110 -10 -11 -2 -47 -6 -80 -10 -97 -9 -251
-30 -345 -45 -30 -5 -73 -12 -95 -15 -100 -14 -347 -61 -450 -85 -821 -189
-1422 -401 -2100 -742 -190 -95 -215 -109 -415 -221 -350 -197 -878 -554
-1136 -768 -23 -19 -58 -47 -79 -64 -21 -16 -43 -34 -49 -40 -6 -5 -54 -46
-106 -90 -52 -44 -97 -82 -100 -85 -3 -3 -48 -43 -100 -90 -248 -221 -599
-584 -823 -849 -49 -59 -99 -117 -111 -131 -109 -127 -344 -445 -486 -655 -96
-143 -290 -450 -290 -459 0 -2 -25 -45 -55 -95 -30 -51 -55 -93 -55 -95 0 -2
-16 -33 -36 -68 -49 -85 -230 -447 -292 -583 -296 -652 -520 -1368 -647 -2065
-18 -102 -36 -203 -39 -225 -3 -22 -12 -85 -20 -140 -8 -55 -17 -125 -21 -155
-3 -30 -7 -71 -10 -90 -6 -42 -12 -108 -20 -210 -3 -41 -8 -84 -10 -95 -26
-138 -27 -1240 0 -1407 2 -13 6 -63 10 -112 4 -50 8 -97 10 -105 1 -9 6 -47 9
-86 53 -536 212 -1262 402 -1825 284 -840 717 -1688 1203 -2355 28 -38 59 -81
68 -94 214 -293 525 -661 777 -919 493 -504 947 -882 1501 -1247 749 -494
1505 -848 2358 -1105 138 -41 402 -112 467 -125 8 -2 53 -13 100 -24 82 -20
398 -84 470 -95 19 -3 78 -12 130 -20 52 -8 113 -17 135 -20 22 -3 72 -9 110
-15 39 -5 97 -12 130 -16 33 -3 74 -8 90 -10 17 -2 73 -7 125 -11 52 -3 97 -8
100 -10 44 -24 1356 -24 1400 0 3 2 48 7 100 10 95 7 290 28 380 41 14 2 45 7
70 10 25 3 86 13 135 20 50 8 108 17 130 21 115 17 464 91 636 134 658 165
1237 378 1824 672 866 432 1619 974 2306 1658 244 242 340 344 494 525 28 33
66 77 85 100 19 23 49 58 65 79 17 22 44 56 60 76 17 20 64 81 105 136 41 54
77 101 80 104 28 26 300 426 399 585 34 55 66 107 71 115 137 219 358 639 489
928 303 667 533 1410 660 2137 19 112 38 231 46 300 4 28 10 77 15 110 5 33
12 87 15 120 3 33 8 74 10 90 2 17 7 68 10 115 4 47 8 95 10 108 26 164 27
1236 0 1404 -2 13 -6 59 -10 103 -3 44 -7 94 -9 110 -2 17 -7 57 -10 90 -37
347 -116 785 -211 1165 -358 1434 -1059 2736 -2074 3855 -30 33 -161 166 -290
295 -304 303 -480 458 -891 783 -8 7 -56 42 -105 78 -764 563 -1600 996 -2503
1295 -484 160 -1061 294 -1542 358 -212 29 -274 36 -337 41 -39 3 -80 8 -91
10 -11 2 -68 6 -128 10 -60 4 -120 9 -134 12 -31 5 -935 14 -941 9z"/>
</g>
</svg>
